<svg width="21" height="30" viewBox="0 0 21 30" fill="none" xmlns="http://www.w3.org/2000/svg">
<path d="M0 19V0.119999H0.96V19H0ZM1.92 19V0.119999H4.8V19H1.92ZM5.76 19V0.119999H7.68V19H5.76ZM2.784 21.784H3.456L5.28 25.432L7.136 21.784H7.776V29.208H6.976V23.608L5.376 26.616H5.056L3.552 23.64V29.208H2.784V21.784ZM10.5625 19V0.119999H11.5225V19H10.5625ZM14.4025 19V0.119999H16.3225V19H14.4025ZM19.2025 19V0.119999H20.1625V19H19.2025ZM13.7945 21.784H18.0505V22.52H14.6265V24.856H17.4105V25.56H14.6265V29.208H13.7945V21.784Z" fill="white"/>
</svg>
