<svg width="115" height="103" viewBox="0 0 115 103" fill="none" xmlns="http://www.w3.org/2000/svg">
<g clip-path="url(#clip0_1_3)">
<path d="M73.1328 97.0363V95.6811C70.3027 94.2355 67.2031 92.1574 64.0136 89.4017C63.0253 88.5434 62.082 87.6399 61.1386 86.7363C64.373 83.1675 67.6074 79.0114 70.7968 74.4486C71.6054 74.3583 72.3691 74.3131 73.1777 74.2228V61.4381C71.5605 64.239 69.8535 66.9947 68.0566 69.7052C64.5527 69.9763 61.0488 70.0666 57.5449 70.0666C53.9511 70.0666 50.4921 69.9763 47.123 69.7504C45.1464 66.814 43.2597 63.8324 41.5078 60.8057C39.7558 57.7789 38.1386 54.6618 36.6113 51.4995C38.1386 48.3372 39.7558 45.2201 41.5078 42.1934C43.2597 39.1666 45.1015 36.185 47.0781 33.2486C50.4921 32.9776 53.996 32.842 57.5449 32.842C61.0937 32.842 64.5976 32.9776 68.0566 33.2486C69.9882 36.1399 71.875 39.1214 73.582 42.1482C74.0312 42.9162 74.4355 43.639 74.8847 44.407C75.873 43.0517 77.2656 42.0127 78.8378 41.4254C78.5234 40.8381 78.164 40.2508 77.8496 39.6635C76.7265 37.721 75.5585 35.7785 74.3457 33.8811C78.0292 34.3328 81.5332 34.9653 84.8125 35.7333C84.2734 37.4499 83.6894 39.1666 83.0156 40.9285H88.2265C88.7207 39.5732 89.125 38.2631 89.5293 36.953C90.6972 37.3144 91.8652 37.6758 92.9433 38.0372C95.5039 38.8956 97.7949 39.8894 99.8164 40.9285H108.891C105.342 37.992 100.445 35.4171 94.5156 33.339C93.3027 32.9324 92.0449 32.5258 90.832 32.1644C91.0566 31.3061 91.2363 30.4478 91.416 29.6346C94.2011 15.9464 92.4042 4.92363 86.1152 1.3096C80.0957 -2.16891 70.3027 1.44512 60.3749 10.1188C59.3867 10.9771 58.4433 11.8355 57.5 12.739L55.6132 10.9771C45.2812 1.71617 34.8593 -2.16891 28.6152 1.44512C22.5957 4.96881 20.8437 15.314 23.3593 28.2793C23.6289 29.5442 23.8984 30.8543 24.2128 32.1192C22.7304 32.5258 21.3378 32.9776 19.9453 33.4745C7.77143 37.721 -5.24583e-05 44.407 -5.24583e-05 51.364C-5.24583e-05 58.5469 8.35542 65.7298 21.0234 70.0666C22.0566 70.428 23.0898 70.7442 24.123 71.0605C23.7636 72.4157 23.4941 73.8162 23.2246 75.1714C20.7988 87.9109 22.6855 98.0302 28.6601 101.509C34.8144 105.078 45.1914 101.418 55.2988 92.5188C56.1074 91.796 56.916 91.0732 57.6796 90.3052C58.6679 91.2991 59.746 92.2478 60.7792 93.1513C65.496 97.217 70.2128 100.153 74.4804 101.644C73.6269 100.334 73.1328 98.753 73.1328 97.0363ZM37.1953 63.2451C38.3632 65.278 39.5761 67.2657 40.789 69.1631C37.0156 68.7565 33.4667 68.1692 30.1874 67.4464C31.2207 64.1486 32.4335 60.7153 33.916 57.2368C34.9941 59.3149 36.0722 61.3026 37.1953 63.2451ZM37.1953 39.6635C36.0722 41.6513 34.9941 43.639 33.9609 45.6267C32.5234 42.1934 31.3105 38.8504 30.3222 35.5978C33.6015 34.8749 37.1054 34.2425 40.7441 33.7907C39.4863 35.7785 38.3183 37.721 37.1953 39.6635ZM63.6542 13.8684C72.1445 6.4596 80.0957 3.52319 83.6894 5.60126C87.5527 7.81486 89.0351 16.8499 86.6093 28.6407C86.4746 29.4087 86.2949 30.1767 86.1152 30.9447C81.3535 29.8153 76.1425 29.0021 70.7519 28.5052C67.6074 23.9877 64.3281 19.8767 61.0488 16.3078C61.8574 15.4495 62.7558 14.6363 63.6542 13.8684V13.8684ZM57.5449 19.8315C59.791 22.3162 62.082 25.0719 64.3281 28.0535C59.791 27.8276 55.2539 27.8276 50.7167 28.0535C52.9628 25.0719 55.2539 22.3162 57.5449 19.8315ZM31.0859 5.73679C34.9492 3.47802 43.4394 6.68547 52.4238 14.6815C53.0078 15.2236 53.5917 15.7206 54.1308 16.2627C50.8066 19.8767 47.4824 23.9877 44.3378 28.46C38.9472 28.957 33.7363 29.7701 28.9746 30.8543C28.6601 29.6798 28.4355 28.5052 28.166 27.2855C26.0097 16.2175 27.4472 7.86003 31.0859 5.73679V5.73679ZM25.4707 66.2719C24.5273 66.0008 23.5839 65.6846 22.6406 65.3684C17.0253 63.4258 12.3984 60.9412 9.20893 58.1855C6.37885 55.746 4.89643 53.3065 4.89643 51.3188C4.89643 47.1175 11.1406 41.7416 21.5624 38.0824C22.8203 37.6306 24.1679 37.2241 25.5156 36.8175C26.9531 41.5157 28.8398 46.4399 31.1308 51.4092C28.8398 56.514 26.9082 61.5285 25.4707 66.2719V66.2719ZM52.0644 88.8144C47.6171 92.7447 43.1249 95.5004 39.1718 96.9008C35.623 98.1657 32.7929 98.2109 31.0859 97.217C27.4472 95.0938 25.9648 87.0074 27.9863 76.0749C28.2109 74.81 28.5253 73.4999 28.8398 72.235C33.5566 73.2741 38.7675 74.042 44.3378 74.4938C47.5273 79.0113 50.8515 83.1223 54.2207 86.7815C53.5468 87.4592 52.8281 88.1368 52.0644 88.8144V88.8144ZM57.6796 83.2127C55.3437 80.6828 53.0078 77.882 50.7617 74.9004C52.9628 74.9907 55.2089 75.0359 57.5 75.0359C59.8359 75.0359 62.1718 74.9907 64.4628 74.9004C62.2167 77.9271 59.9257 80.728 57.6796 83.2127Z" fill="#2C8DFF"/>
<path d="M59.1509 61.5757C64.759 60.661 68.5679 55.3474 67.6583 49.7077C66.7486 44.0679 61.465 40.2375 55.8568 41.1523C50.2487 42.067 46.4398 47.3805 47.3495 53.0203C48.2591 58.6601 53.5428 62.4905 59.1509 61.5757Z" fill="#2C8DFF"/>
<path d="M107.363 102.864H84.1835C80.5898 102.864 77.6698 99.9733 77.6698 96.4044V51.3193C77.6698 47.7505 80.5898 44.8592 84.1835 44.8592H107.363C110.957 44.8592 113.877 47.7505 113.877 51.3193V96.4044C113.877 99.9281 110.957 102.864 107.363 102.864ZM84.1835 49.4671C83.1503 49.4671 82.3417 50.2803 82.3417 51.3193V96.4044C82.3417 97.3983 83.1503 98.2566 84.1835 98.2566H107.363C108.396 98.2566 109.205 97.4434 109.205 96.4044V51.3193C109.205 50.3255 108.396 49.4671 107.363 49.4671H84.1835Z" fill="#2C8DFF"/>
<path d="M98.7831 55.1591H93.0781C92.1796 55.1591 91.5058 54.4363 91.5058 53.5779V53.4876C91.5058 52.5841 92.2245 51.9065 93.0781 51.9065H98.7831C99.6816 51.9065 100.355 52.6293 100.355 53.4876V53.5779C100.4 54.4363 99.6816 55.1591 98.7831 55.1591Z" fill="#2C8DFF"/>
<path d="M95.8633 96.1785C97.0789 96.1785 98.0644 95.2076 98.0644 94.0101C98.0644 92.8125 97.0789 91.8416 95.8633 91.8416C94.6476 91.8416 93.6621 92.8125 93.6621 94.0101C93.6621 95.2076 94.6476 96.1785 95.8633 96.1785Z" fill="#2C8DFF"/>
</g>
<defs>
<clipPath id="clip0_1_3">
<rect width="115" height="103" fill="white"/>
</clipPath>
</defs>
</svg>
