<svg width="241" height="89" viewBox="0 0 241 89" fill="none" xmlns="http://www.w3.org/2000/svg">
<g clip-path="url(#clip0_2_25)">
<mask id="mask0_2_25" style="mask-type:luminance" maskUnits="userSpaceOnUse" x="3" y="2" width="235" height="85">
<path d="M232.857 2.47661H8.27879C5.55284 2.47661 3.34301 4.69008 3.34301 7.42054V81.5796C3.34301 84.31 5.55284 86.5235 8.27879 86.5235H232.857C235.583 86.5235 237.793 84.31 237.793 81.5796V7.42054C237.793 4.69008 235.583 2.47661 232.857 2.47661Z" fill="white"/>
</mask>
<g mask="url(#mask0_2_25)">
<path d="M3.34301 7.42054C3.34301 4.69008 5.55284 2.47661 8.27879 2.47661H232.857C235.583 2.47661 237.793 4.69008 237.793 7.42054V81.5796C237.793 84.31 235.583 86.5235 232.857 86.5235H8.27881C5.55285 86.5235 3.34301 84.31 3.34301 81.5796V7.42054Z" fill="#2C2C2C"/>
<path d="M3.34301 7.42054C3.34301 4.69008 5.55284 2.47661 8.27879 2.47661H232.857C235.583 2.47661 237.793 4.69008 237.793 7.42054V81.5796C237.793 84.31 235.583 86.5235 232.857 86.5235H8.27881C5.55285 86.5235 3.34301 84.31 3.34301 81.5796V7.42054Z" fill="url(#paint0_linear_2_25)" fill-opacity="0.4"/>
<path d="M3.34301 7.42054C3.34301 4.69008 5.55284 2.47661 8.27879 2.47661H232.857C235.583 2.47661 237.793 4.69008 237.793 7.42054V81.5796C237.793 84.31 235.583 86.5235 232.857 86.5235H8.27881C5.55285 86.5235 3.34301 84.31 3.34301 81.5796V7.42054Z" fill="url(#paint1_linear_2_25)" fill-opacity="0.2"/>
<mask id="mask1_2_25" style="mask-type:luminance" maskUnits="userSpaceOnUse" x="3" y="2" width="235" height="85">
<path d="M3.34301 7.42054C3.34301 4.69008 5.55284 2.47661 8.27879 2.47661H232.857C235.583 2.47661 237.793 4.69008 237.793 7.42054V81.5796C237.793 84.31 235.583 86.5235 232.857 86.5235H8.27881C5.55285 86.5235 3.34301 84.31 3.34301 81.5796V7.42054Z" fill="white"/>
</mask>
<g mask="url(#mask1_2_25)">
<path d="M8.27885 4.94859H232.857V0.00465393H8.27885V4.94859ZM235.325 7.42056V81.5796H240.26V7.42056H235.325ZM232.857 84.0515H8.27886V88.9955H232.857V84.0515ZM5.81096 81.5796V7.42056H0.875183V81.5796H5.81096ZM8.27886 84.0515C6.91587 84.0515 5.81096 82.9448 5.81096 81.5796H0.875183C0.875183 85.6753 4.18993 88.9955 8.27886 88.9955V84.0515ZM235.325 81.5796C235.325 82.9448 234.22 84.0515 232.857 84.0515V88.9955C236.946 88.9955 240.26 85.6753 240.26 81.5796H235.325ZM232.857 4.94859C234.22 4.94859 235.325 6.05533 235.325 7.42056H240.26C240.26 3.32486 236.946 0.00465393 232.857 0.00465393V4.94859ZM8.27885 0.00465393C4.18992 0.00465393 0.875183 3.32486 0.875183 7.42056H5.81096C5.81096 6.05533 6.91587 4.94859 8.27885 4.94859V0.00465393Z" fill="url(#paint2_linear_2_25)"/>
</g>
<mask id="mask2_2_25" style="mask-type:luminance" maskUnits="userSpaceOnUse" x="37" y="17" width="90" height="55">
<path d="M126.939 17.3084H37.8935V71.5996H126.939V17.3084Z" fill="white"/>
</mask>
<g mask="url(#mask2_2_25)">
<path d="M109.129 44.4539C109.129 46.9523 108.132 49.2162 106.523 50.8511C104.911 52.4896 102.686 53.5024 100.224 53.5024C97.7622 53.5024 95.5377 54.5155 93.9286 56.1504C92.3162 57.7888 91.3194 60.0492 91.3194 62.5511C91.3194 65.0528 90.3225 67.3132 88.7135 68.9482C87.1011 70.5866 84.8765 71.5996 82.4145 71.5996C79.9525 71.5996 77.7279 70.5866 76.1188 68.9482C74.5064 67.3132 73.5097 65.0494 73.5097 62.5511C73.5097 60.0527 74.5064 57.7888 76.1188 56.1504C77.7279 54.512 79.9558 53.5024 82.4145 53.5024C84.8732 53.5024 87.1011 52.4896 88.7135 50.8511C90.3259 49.2162 91.3194 46.9523 91.3194 44.4539C91.3194 39.4572 87.3353 35.4054 82.4145 35.4054C79.9558 35.4054 77.7279 34.3925 76.1188 32.7541C74.5064 31.1192 73.5097 28.8553 73.5097 26.3569C73.5097 23.8585 74.5064 21.5947 76.1188 19.9564C77.7279 18.3179 79.9558 17.3084 82.4145 17.3084C87.3319 17.3084 91.3194 21.3602 91.3194 26.3569C91.3194 28.8553 92.3162 31.1192 93.9286 32.7541C95.5377 34.3925 97.7656 35.4054 100.224 35.4054C105.142 35.4054 109.129 39.4572 109.129 44.4539Z" fill="#F44250"/>
<path d="M73.513 44.454C73.513 39.4566 69.5261 35.4054 64.6081 35.4054C59.6901 35.4054 55.7032 39.4566 55.7032 44.454C55.7032 49.4514 59.6901 53.5025 64.6081 53.5025C69.5261 53.5025 73.513 49.4514 73.513 44.454Z" fill="white"/>
<path d="M55.7032 62.5511C55.7032 57.5536 51.7163 53.5024 46.7983 53.5024C41.8803 53.5024 37.8934 57.5536 37.8934 62.5511C37.8934 67.5484 41.8803 71.5996 46.7983 71.5996C51.7163 71.5996 55.7032 67.5484 55.7032 62.5511Z" fill="white"/>
<path d="M126.939 62.5511C126.939 57.5536 122.952 53.5024 118.034 53.5024C113.116 53.5024 109.129 57.5536 109.129 62.5511C109.129 67.5484 113.116 71.5996 118.034 71.5996C122.952 71.5996 126.939 67.5484 126.939 62.5511Z" fill="white"/>
</g>
<mask id="mask3_2_25" style="mask-type:luminance" maskUnits="userSpaceOnUse" x="133" y="17" width="72" height="55">
<path d="M204.476 17.7018H133.27V71.993H204.476V17.7018Z" fill="white"/>
</mask>
<g mask="url(#mask3_2_25)">
<path d="M162.861 25.9144V17.7018H204.472V27.8144C186.03 42.6699 185.779 53.358 185.688 71.993H172.007C172.287 52.4216 176.267 41.2467 188.22 28.3251H165.287C163.95 28.3251 162.865 27.2457 162.865 25.9144H162.861Z" fill="#F44250"/>
<path d="M145.424 33.4495H133.27L148.812 71.9964H165.284C165.567 55.217 169.167 44.3281 177.687 33.446H164.641C163.823 33.446 163.053 33.8275 162.564 34.4812C158.81 39.4762 155.765 48.2846 155.765 54.3284L148.497 34.8557C148.182 34.0113 147.372 33.4495 146.465 33.4495H145.431H145.424Z" fill="white"/>
</g>
</g>
<path d="M232.857 1.24057H8.27879C4.87135 1.24057 2.10907 4.00741 2.10907 7.42049V81.5795C2.10907 84.9926 4.87135 87.7594 8.27879 87.7594H232.857C236.264 87.7594 239.027 84.9926 239.027 81.5795V7.42049C239.027 4.00741 236.264 1.24057 232.857 1.24057Z" stroke="url(#paint3_linear_2_25)" stroke-width="1.77982"/>
</g>
<defs>
<linearGradient id="paint0_linear_2_25" x1="120.568" y1="2.47661" x2="120.568" y2="44.5001" gradientUnits="userSpaceOnUse">
<stop stop-opacity="0"/>
<stop offset="1"/>
</linearGradient>
<linearGradient id="paint1_linear_2_25" x1="273.666" y1="49.3959" x2="218.495" y2="-53.9095" gradientUnits="userSpaceOnUse">
<stop stop-color="#A8A8A6"/>
<stop offset="0.451645" stop-color="#696969"/>
<stop offset="0.665" stop-color="#F9F8F6"/>
<stop offset="0.825" stop-color="#D4D4D4"/>
<stop offset="1" stop-color="#7F7F7F"/>
</linearGradient>
<linearGradient id="paint2_linear_2_25" x1="12.4974" y1="2.47662" x2="38.1538" y2="86.4999" gradientUnits="userSpaceOnUse">
<stop stop-color="white"/>
<stop offset="1" stop-color="#525252"/>
</linearGradient>
<linearGradient id="paint3_linear_2_25" x1="120.568" y1="-6.5551" x2="167.17" y2="112.959" gradientUnits="userSpaceOnUse">
<stop stop-color="#AAAAAA"/>
<stop offset="1" stop-color="#040000"/>
</linearGradient>
<clipPath id="clip0_2_25">
<rect width="239.385" height="88.9908" fill="white" transform="translate(0.875183 0.00457764)"/>
</clipPath>
</defs>
</svg>
