<svg width="121" height="127" viewBox="0 0 121 127" fill="none" xmlns="http://www.w3.org/2000/svg">
<g clip-path="url(#clip0_2_55)">
<path d="M70.7213 123.947C67.547 127.995 61.1108 125.777 61.0343 120.61L59.9159 45.0262H110.114C119.206 45.0262 124.277 55.6584 118.623 62.8677L70.7213 123.947Z" fill="url(#paint0_linear_2_55)"/>
<path d="M70.7213 123.947C67.547 127.995 61.1108 125.777 61.0343 120.61L59.9159 45.0262H110.114C119.206 45.0262 124.277 55.6584 118.623 62.8677L70.7213 123.947Z" fill="url(#paint1_linear_2_55)" fill-opacity="0.2"/>
<path d="M50.3062 2.32761C53.4806 -1.71998 59.9169 0.497805 59.9934 5.66554L60.4835 81.2487H10.9137C1.82119 81.2487 -3.24986 70.6166 2.40412 63.4073L50.3062 2.32761Z" fill="#3ECF8E"/>
</g>
<defs>
<linearGradient id="paint0_linear_2_55" x1="59.9159" y1="61.7849" x2="104.694" y2="80.334" gradientUnits="userSpaceOnUse">
<stop stop-color="#249361"/>
<stop offset="1" stop-color="#3ECF8E"/>
</linearGradient>
<linearGradient id="paint1_linear_2_55" x1="40.1362" y1="34.3664" x2="60.8775" y2="72.9313" gradientUnits="userSpaceOnUse">
<stop/>
<stop offset="1" stop-opacity="0"/>
</linearGradient>
<clipPath id="clip0_2_55">
<rect width="121" height="127" fill="white"/>
</clipPath>
</defs>
</svg>
