<svg width="110" height="101" viewBox="0 0 110 101" fill="none" xmlns="http://www.w3.org/2000/svg">
<path d="M109.503 75.5818V100.668H48.1681C30.2977 100.668 14.6941 90.5795 6.34804 75.5818C2.65497 68.9343 0.484542 61.5174 0 53.8888L0 47.1112C0.217904 43.6299 0.78994 40.1813 1.70685 36.8211C7.44114 15.7556 26.0731 0.331898 48.1636 0.331898C70.2675 0.331898 88.895 15.7647 94.6248 36.8165H68.3994C64.0987 29.9519 56.6441 25.4137 48.1681 25.4137C39.6921 25.4137 32.242 29.9519 27.9368 36.8165C26.6061 38.9303 25.5943 41.2367 24.9352 43.6583C24.3312 45.8863 24.0268 48.188 24.0303 50.5C24.0204 53.9056 24.6862 57.2779 25.9875 60.413C27.2888 63.5481 29.1986 66.3809 31.6013 68.74C36.0467 73.1304 41.9868 75.5835 48.1681 75.5818H109.503Z" fill="#FD366E"/>
<path d="M109.503 43.6536V68.74H64.7304C67.134 66.3812 69.0446 63.5486 70.3467 60.4135C71.6488 57.2784 72.3153 53.9059 72.3059 50.4999C72.3081 48.1877 72.0022 45.886 71.3965 43.6582L109.503 43.6536Z" fill="#FD366E"/>
</svg>
