<svg width="130" height="97" viewBox="0 0 130 97" fill="none" xmlns="http://www.w3.org/2000/svg">
<path fill-rule="evenodd" clip-rule="evenodd" d="M66.1707 11.5688C49.3202 11.5688 38.7915 19.8752 34.5771 36.4879C40.8963 28.1815 48.2679 25.0672 56.6918 27.1426C61.4981 28.3264 64.935 31.7649 68.736 35.5718C74.9314 41.7708 82.1024 48.9449 97.7618 48.9449C114.61 48.9449 125.141 40.6386 129.353 24.0283C123.036 32.3347 115.665 35.449 107.241 33.3711C102.432 32.1873 98.9949 28.7489 95.194 24.9444C88.9986 18.7405 81.83 11.5688 66.1707 11.5688ZM34.5771 48.9449C17.7291 48.9449 7.19792 57.2513 2.98593 73.864C9.30515 65.5577 16.6767 62.4434 25.0982 64.5188C29.907 65.7026 33.3439 69.141 37.1449 72.9479C43.3403 79.147 50.5088 86.3211 66.1707 86.3211C83.0186 86.3211 93.5498 78.0172 97.7618 61.4045C91.4426 69.7108 84.071 72.8251 75.647 70.7497C70.8407 69.5635 67.4038 66.125 63.6029 62.3206C57.4074 56.1215 50.2364 48.9449 34.5771 48.9449Z" fill="#38BDF8"/>
</svg>
