<svg width="122" height="122" viewBox="0 0 122 122" fill="none" xmlns="http://www.w3.org/2000/svg">
<g clip-path="url(#clip0_2_60)">
<mask id="mask0_2_60" style="mask-type:alpha" maskUnits="userSpaceOnUse" x="0" y="0" width="122" height="122">
<path d="M61 122C94.6894 122 122 94.6894 122 61C122 27.3106 94.6894 0 61 0C27.3106 0 0 27.3106 0 61C0 94.6894 27.3106 122 61 122Z" fill="black"/>
</mask>
<g mask="url(#mask0_2_60)">
<path d="M61 122C94.6894 122 122 94.6894 122 61C122 27.3106 94.6894 0 61 0C27.3106 0 0 27.3106 0 61C0 94.6894 27.3106 122 61 122Z" fill="black"/>
<path d="M101.333 106.764L46.863 36.6001H36.6001V85.3797H44.8104V47.0267L94.8882 111.728C97.1479 110.216 99.3005 108.556 101.333 106.764Z" fill="url(#paint0_linear_2_60)"/>
<path d="M86.0778 36.6001H77.9445V85.4H86.0778V36.6001Z" fill="url(#paint1_linear_2_60)"/>
</g>
</g>
<defs>
<linearGradient id="paint0_linear_2_60" x1="73.8778" y1="78.9611" x2="97.9389" y2="108.783" gradientUnits="userSpaceOnUse">
<stop stop-color="white"/>
<stop offset="1" stop-color="white" stop-opacity="0"/>
</linearGradient>
<linearGradient id="paint1_linear_2_60" x1="82.0112" y1="36.6001" x2="81.8749" y2="72.4375" gradientUnits="userSpaceOnUse">
<stop stop-color="white"/>
<stop offset="1" stop-color="white" stop-opacity="0"/>
</linearGradient>
<clipPath id="clip0_2_60">
<rect width="122" height="122" fill="white"/>
</clipPath>
</defs>
</svg>
