<svg width="91" height="81" viewBox="0 0 91 81" fill="none" xmlns="http://www.w3.org/2000/svg">
<path d="M45.3329 48.512C49.8056 48.512 53.4314 44.8846 53.4314 40.4099C53.4314 35.9351 49.8056 32.3077 45.3329 32.3077C40.8601 32.3077 37.2343 35.9351 37.2343 40.4099C37.2343 44.8846 40.8601 48.512 45.3329 48.512Z" fill="#107FFE"/>
<path d="M45.3328 58.9699C33.9593 58.9699 24.0216 57.6303 16.5844 55.0802C11.7607 53.4339 7.66302 51.2389 4.743 48.7373C1.64552 46.0903 -1.13747e-05 43.2013 -1.13838e-05 40.4091C-1.14014e-05 35.0507 5.87229 29.8053 15.7294 26.3836C23.7957 23.5753 34.3142 22.0097 45.3167 22.0097C56.1256 22.0097 66.4989 23.5269 74.5169 26.3029C79.2115 27.9169 83.164 30.0151 85.9711 32.3392C89.0202 34.8893 90.6334 37.6815 90.6334 40.4091C90.6334 45.9774 84.0674 51.6102 73.4844 55.1125C65.9988 57.598 55.9965 58.9699 45.3328 58.9699ZM45.3328 25.8833C34.895 25.8833 24.5701 27.4004 17.02 30.0312C7.9534 33.1946 3.88797 37.5201 3.88797 40.4091C3.88797 43.4111 8.25993 48.1401 17.8427 51.4165C24.8766 53.8213 34.3949 55.0964 45.3328 55.0964C55.5932 55.0964 65.1599 53.8052 72.2744 51.4326C82.2283 48.1239 86.7777 43.395 86.7777 40.4091C86.7777 38.8758 85.6162 37.0682 83.5028 35.3089C81.0667 33.2753 77.5176 31.4192 73.2747 29.9505C65.6439 27.3359 55.7223 25.8833 45.3328 25.8833Z" fill="#107FFE"/>
<path d="M26.9583 80.7914C25.3128 80.7914 23.8609 80.4364 22.6348 79.7262C18.0047 77.047 16.3914 69.3322 18.3435 59.0834C19.9406 50.6745 23.8447 40.797 29.346 31.2583C34.7504 21.8972 41.2358 13.6659 47.6405 8.09769C51.3832 4.83744 55.1744 2.44875 58.5946 1.18984C62.3212 -0.18204 65.5477 -0.18204 67.9031 1.17371C72.7268 3.94975 74.3239 12.4716 72.0654 23.3821C70.4682 31.1292 66.6609 40.4742 61.3371 49.7223C55.6584 59.5676 49.528 67.5084 43.6073 72.6893C39.7677 76.0463 35.8152 78.4996 32.2015 79.7746C30.3139 80.4525 28.5393 80.7914 26.9583 80.7914ZM31.0076 32.2267L32.6854 33.1951C27.4746 42.2334 23.6189 51.9334 22.1347 59.8097C20.3439 69.2515 22.0701 74.9327 24.5546 76.3691C25.1676 76.7242 25.9742 76.9179 26.9583 76.9179C30.1687 76.9179 35.2183 74.8843 41.0583 69.7841C46.6564 64.8937 52.5125 57.2757 57.9815 47.8016C63.1117 38.9086 66.7577 29.9671 68.2742 22.6235C70.3876 12.3425 68.5646 6.04793 65.9672 4.54693C64.6443 3.78836 62.4987 3.88519 59.9174 4.83744C56.9329 5.93495 53.5612 8.08155 50.1733 11.0351C44.0913 16.329 37.8802 24.2052 32.6854 33.2112L31.0076 32.2267Z" fill="#107FFE"/>
<path d="M63.7088 80.8411C59.3207 80.8411 53.7549 78.1942 47.9472 73.1908C41.4618 67.6064 34.8635 59.2944 29.3462 49.7558C23.9256 40.3947 20.0537 30.6624 18.4243 22.3181C17.4725 17.4439 17.2951 12.9732 17.9081 9.37397C18.5857 5.452 20.1828 2.65981 22.5543 1.28793C27.3618 -1.50426 35.5411 1.36862 43.8656 8.7768C49.7701 14.0222 55.9651 21.9953 61.305 31.2273C66.9999 41.0726 70.8233 50.353 72.3398 58.0678C73.3239 63.0711 73.4852 67.7194 72.7915 71.4961C72.0494 75.5149 70.3716 78.3717 67.9517 79.7759C66.7417 80.486 65.3059 80.8411 63.7088 80.8411ZM32.7018 47.819C37.9288 56.8573 44.4141 65.0402 50.48 70.2534C57.7558 76.5156 63.5313 77.8714 66.0319 76.4188C68.6293 74.9178 70.5329 68.7685 68.5647 58.8264C67.1128 51.5312 63.4507 42.6543 57.9656 33.1802C52.8192 24.2872 46.8985 16.653 41.3005 11.682C33.46 4.70957 27.1037 3.144 24.5064 4.64501C23.1835 5.40358 22.1994 7.32422 21.7315 10.0357C21.1992 13.1668 21.3605 17.1695 22.2317 21.5757C23.7804 29.5003 27.4909 38.813 32.7018 47.819Z" fill="#107FFE"/>
</svg>
