<svg width="120" height="120" viewBox="0 0 120 120" fill="none" xmlns="http://www.w3.org/2000/svg">
<path d="M0 0H120V120H0V0Z" fill="#FEB5C6"/>
<path d="M28 67V29.24H33.76V67H28ZM35.68 67V29.24H41.44V67H35.68ZM43.36 67V29.24H45.28V67H43.36ZM47.2 67V29.24H49.12V67H47.2ZM54.88 67V29.24H56.8V67H54.88ZM38.368 72.568H39.712L43.36 79.864L47.072 72.568H48.352V87.416H46.752V76.216L43.552 82.232H42.912L39.904 76.28V87.416H38.368V72.568ZM58.75 67V29.24H60.67V67H58.75ZM62.59 67V29.24H68.35V67H62.59ZM70.27 67V29.24H76.03V67H70.27ZM81.79 67V29.24H83.71V67H81.79ZM85.63 67V29.24H87.55V67H85.63ZM70.014 72.568H78.526V74.04H71.678V78.712H77.246V80.12H71.678V87.416H70.014V72.568Z" fill="#0D5D0D"/>
</svg>
