<svg width="120" height="120" viewBox="0 0 120 120" fill="none" xmlns="http://www.w3.org/2000/svg">
<path d="M0 0H120V120H0V0Z" fill="#09381F"/>
<path d="M15.207 34.1562L18.6348 33.7168C21.8574 34.3027 23.4688 34.8887 23.4688 35.4746C24.2305 35.8262 24.9336 36.5879 25.5781 37.7598C27.1016 38.9316 28.8594 42.0664 30.8516 47.1641L33.5762 52.1738C34.6309 55.9824 35.4219 57.8867 35.9492 57.8867C36.6523 57.8867 37.8242 56.0117 39.4648 52.2617C41.457 48.1602 44.3281 43.1504 48.0781 37.2324C49.1914 36.8223 49.748 36.3828 49.748 35.9141C50.0996 35.0938 50.5684 34.5664 51.1543 34.332L52.2969 34.4199C53.1758 34.127 54.084 33.9219 55.0215 33.8047C59.0059 34.332 60.998 34.9473 60.998 35.6504V35.7383L61.1738 56.3047L60.998 62.0176C61.291 64.4199 61.7891 70.6016 62.4922 80.5625L62.3164 81.5293C62.7852 81.8223 63.5176 81.9688 64.5137 81.9688C65.7441 82.1445 66.3594 82.7012 66.3594 83.6387V84.166C66.3594 88.0332 66.125 89.9668 65.6562 89.9668H65.4805C64.543 89.498 63.5762 89.2637 62.5801 89.2637H57.3945C52.0039 89.2637 49.3086 88.707 49.3086 87.5938L49.5723 85.3965V85.0449C49.5723 84.8105 49.3672 84.4004 48.957 83.8145V83.2871C48.957 82.9941 49.9238 82.6719 51.8574 82.3203L52.3848 81.7051L52.1211 81.1777V79.8594C52.1211 78.9805 52.4141 77.5449 53 75.5527L53.3516 75.1133C52.9414 74.6445 52.7363 72.2422 52.7363 67.9062V62.5449L52.8242 59.9082C52.5898 59.2637 52.4727 58.4141 52.4727 57.3594V56.041C52.4727 54.752 52.6484 52.9648 53 50.6797C53 49.9766 53.293 49.0391 53.8789 47.8672L53.9668 47.3398C53.5566 45.3477 53.3516 43.9121 53.3516 43.0332H53.0879C52.0918 44.0293 50.5098 46.2266 48.3418 49.625C45.8809 54.2539 43.6543 57.9453 41.6621 60.6992L38.1465 65.709C37.7949 66.2363 37.2969 66.5 36.6523 66.5L35.5977 66.0605C35.0117 66.1777 34.5723 66.3242 34.2793 66.5C33.5762 66.5 33.166 65.8262 33.0488 64.4785C32.4043 63.1309 31.4961 61.7832 30.3242 60.4355C29.3867 59.3223 27.5996 55.9824 24.9629 50.416L23.9961 48.6582L22.8535 46.6367L22.9414 46.5488H23.4688C23.7617 46.5488 23.9961 46.9297 24.1719 47.6914L24.2598 47.8672H24.5234V47.5156C24.5234 45.7578 23.7031 44.1758 22.0625 42.7695H21.7988V43.209H21.0957V43.7363L21.0078 44.6152V45.4941C21.9453 58.3848 22.4141 69.459 22.4141 78.7168C22.2969 79.0098 22.0918 79.1562 21.7988 79.1562C21.5645 79.1562 21.4473 78.834 21.4473 78.1895L21.2715 78.1016H21.0957L20.832 79.9473C21.5938 80.3574 21.9746 80.8555 21.9746 81.4414L21.7988 82.4961C20.8613 82.4961 20.3926 82.291 20.3926 81.8809H20.1289L19.8652 82.3203V82.7598C19.8652 82.9941 21.0371 83.375 23.3809 83.9023H23.7324C24.1426 83.9023 24.582 83.8145 25.0508 83.6387C27.4531 84.1074 28.6543 84.5469 28.6543 84.957V85.3086L28.127 85.3965C27.7168 85.3965 27.1016 85.0742 26.2812 84.4297H25.8418C24.4355 84.6055 23.7324 84.8398 23.7324 85.1328C23.791 85.3672 23.9961 85.4844 24.3477 85.4844H25.5781C27.3359 85.6602 28.2148 85.9824 28.2148 86.4512L28.3906 87.3301V87.8574C28.3906 88.6191 27.7754 89.0586 26.5449 89.1758C25.666 88.7656 24.7578 88.5605 23.8203 88.5605V88.6484C23.8203 88.8242 24.1133 88.9121 24.6992 88.9121C25.4609 89.0879 25.8418 89.2637 25.8418 89.4395L24.875 89.5273C23.1172 89.5273 19.6016 89.2051 14.3281 88.5605L12.1309 89.1758C11.0762 88.9414 10.5488 88.502 10.5488 87.8574V87.3301C9.8457 87.3301 9.37695 86.5977 9.14258 85.1328L9.05469 84.957V84.5176C9.69922 83.3457 10.8711 82.7598 12.5703 82.7598C14.0352 82.4082 14.7676 82.1445 14.7676 81.9688V81.8809L13.2734 41.1875L13.4492 37.4082L13.0977 36.002C13.0977 34.7715 13.8008 34.1562 15.207 34.1562ZM21.4473 39.5176C22.1504 40.8066 23.293 42.3301 24.875 44.0879L28.127 50.5918H28.3906C28.3906 49.5957 27.248 46.6367 24.9629 41.7148C24.9629 41.3047 24.377 40.5723 23.2051 39.5176L23.0293 38.9902H22.502C21.7988 39.0488 21.4473 39.2246 21.4473 39.5176ZM19.9531 67.1152C19.8359 67.4668 19.7773 67.8477 19.7773 68.2578V73.1797L19.8652 77.8379L19.9531 78.0137H20.1289C20.7148 78.0137 21.0957 77.6035 21.2715 76.7832V76.2559C21.0371 76.2559 20.8613 75.9336 20.7441 75.2891L20.832 73.707V73.6191C20.832 72.2129 20.6855 71.1582 20.3926 70.4551L20.6562 69.2246C20.5977 67.9355 20.3633 67.2324 19.9531 67.1152ZM42.1016 52.4375L42.2773 52.6133C42.7461 52.3203 43.3613 51.2949 44.123 49.5371C44.6504 49.0098 45.1191 47.9844 45.5293 46.4609V46.2852L45.1777 46.1094C44.3574 46.1094 43.332 48.2188 42.1016 52.4375ZM58.9766 52.4375C59.0938 56.2461 59.3574 58.2383 59.7676 58.4141L59.9434 58.2383V55.4258C59.9434 53.1992 59.8555 51.5293 59.6797 50.416H59.416C59.123 50.416 58.9766 51.0898 58.9766 52.4375ZM19.6016 56.3047C19.7188 59.4102 19.9238 60.9629 20.2168 60.9629H20.3926V59.8203C20.3926 58.0039 20.334 56.1582 20.2168 54.2832H20.1289C19.8945 54.2832 19.7188 54.957 19.6016 56.3047ZM18.2832 43.0332H17.8438L17.7559 43.5605V46.6367C17.7559 47.6914 17.9023 48.2188 18.1953 48.2188C18.4883 48.2188 18.6348 47.457 18.6348 45.9336C18.6348 44.7031 18.5176 43.7363 18.2832 43.0332ZM59.9434 75.1133C59.5918 75.4648 59.416 76.1387 59.416 77.1348V78.4531L59.7676 78.9805H60.2949C60.4707 78.9805 60.5879 78.6875 60.6465 78.1016C60.4121 76.1094 60.1777 75.1133 59.9434 75.1133ZM16.2617 70.3672L16.3496 70.4551C16.877 70.4551 17.1406 69.5762 17.1406 67.8184V65.0059L17.0527 64.4785C16.7598 64.4785 16.4961 66.4414 16.2617 70.3672ZM14.9434 38.4629L14.8555 38.5508V38.6387C15.0898 41.334 15.3535 42.6816 15.6465 42.6816C15.8809 42.2715 15.998 41.7441 15.998 41.0996V40.3965C15.998 39.166 15.6465 38.5215 14.9434 38.4629ZM10.5488 83.8145L10.1973 84.0781V84.5176C10.1973 84.9277 10.5488 85.4258 11.252 86.0117H11.4277C11.6035 86.0117 11.7207 85.8066 11.7793 85.3965C11.7207 84.3418 11.5449 83.8145 11.252 83.8145H10.5488ZM57.043 73.707H56.6914C56.2812 74.7617 56.0762 75.6992 56.0762 76.5195C56.252 77.2227 56.457 77.5742 56.6914 77.5742H56.8672L57.043 73.8828V73.707ZM17.1406 37.4082H17.0527V37.9355C17.4629 40.1035 17.873 41.1875 18.2832 41.1875H18.5469V40.8359L17.9316 39.3418C17.9316 38.4629 17.668 37.8184 17.1406 37.4082ZM16.3496 76.7832V78.1895L16.7012 78.3652H16.877L17.1406 76.4316L17.0527 75.8164H16.877C16.6426 75.8164 16.4668 76.1387 16.3496 76.7832ZM17.668 87.7695L17.1406 88.0332C17.5508 88.2676 18.0488 88.3848 18.6348 88.3848H18.8984L19.7773 88.209V87.8574L17.668 87.7695ZM51.418 37.6719L51.5059 37.7598C51.6816 37.7598 52.0918 37.3496 52.7363 36.5293V36.002H52.4727C52.0039 36.2949 51.6523 36.8516 51.418 37.6719ZM16.877 61.4902H16.7012V62.2812V62.3691C16.7012 63.248 16.8184 63.6875 17.0527 63.6875L17.3164 62.8086C17.1992 61.9297 17.0527 61.4902 16.877 61.4902ZM51.3301 84.7812L51.0664 85.1328V85.4844L51.2422 85.6602L52.4727 85.3965V85.1328C52.4141 84.8984 52.209 84.7812 51.8574 84.7812H51.3301ZM15.8223 50.5918H15.4707V52.7891L15.7344 52.9648H15.8223L15.998 51.5586V51.2949L15.8223 50.5918ZM37.8828 59.9082H37.6191C37.2676 60.4355 37.0918 60.8457 37.0918 61.1387V61.3145H37.3555C37.6484 61.3145 37.8242 60.9336 37.8828 60.1719V59.9082ZM21.0957 88.209H20.4805V88.3848L21.5352 88.6484H22.9414V88.3848L21.0957 88.209ZM19.4258 36.4414L18.8984 36.5293V36.793C18.8984 36.9102 19.1328 37.0273 19.6016 37.1445C19.9531 37.0273 20.1289 36.9102 20.1289 36.793V36.6172L19.8652 36.4414H19.4258ZM50.3633 39.5176H50.5391H50.627C50.9785 39.1074 51.1543 38.7559 51.1543 38.4629V38.2871H51.0664C50.5977 38.5801 50.3633 38.9902 50.3633 39.5176ZM51.8574 87.3301L51.2422 87.5059V87.7695L51.5059 87.8574H52.4727V87.7695C52.3555 87.4766 52.1504 87.3301 51.8574 87.3301ZM60.2949 79.8594H59.5039V80.0352L59.9434 80.5625H60.1191L60.5586 80.2109V80.0352L60.2949 79.8594ZM22.4141 37.1445V37.2324H23.3809L23.4688 37.1445V36.9688L23.3809 36.793C22.7949 36.793 22.4727 36.9102 22.4141 37.1445ZM56.0762 50.6797V50.9434L56.252 51.207C56.4863 51.1484 56.6035 50.9434 56.6035 50.5918V50.0645H56.4277C56.1934 50.123 56.0762 50.3281 56.0762 50.6797ZM19.7773 63.8633V64.2148L19.8652 65.3574H20.1289V64.7422C20.1289 64.1562 20.0117 63.8633 19.7773 63.8633ZM20.7441 80.7383L20.4805 80.9141L20.7441 81.1777H21.0957L21.2715 80.9141L21.0957 80.7383H20.7441ZM54.3184 79.8594H54.0547L53.9668 80.3867V80.5625H54.2305L54.3184 80.2988V79.8594ZM57.834 80.8262L57.4824 81.1777L57.6582 81.4414H58.1855V81.1777L57.834 80.8262ZM56.0762 53.1406H55.9004V53.4922L56.0762 54.0195H56.252V53.4043L56.0762 53.1406ZM56.4277 49.0977H56.6035C56.7793 48.9805 56.8672 48.7168 56.8672 48.3066C56.5742 48.4238 56.4277 48.6875 56.4277 49.0977ZM57.3066 69.4883H57.043L56.9551 69.752L57.3066 70.0156L57.4824 69.752V69.6641L57.3066 69.4883ZM57.2188 78.9805H56.6914V79.332H56.9551L57.2188 79.0684V78.9805ZM11.7793 87.2422H11.4277V87.5059L11.6035 87.7695L11.7793 87.5938H11.8672L11.7793 87.2422ZM14.7676 36.5293H14.5039V36.793L14.6797 36.9688H14.7676V36.5293ZM16.2617 80.2109H16.0859V80.6504H16.3496V80.3867L16.2617 80.2109ZM75.2363 32.4863H79.2793C101.428 32.4863 112.502 32.7207 112.502 33.1895C113.088 36.2949 113.381 38.668 113.381 40.3086C113.088 41.3633 112.678 43.3555 112.15 46.2852C111.857 47.1055 111.535 47.5156 111.184 47.5156C107.375 47.5156 105.471 46.9883 105.471 45.9336V45.7578L106.701 41.2754C106.408 39.0488 105.969 37.9355 105.383 37.9355L104.24 37.7598H101.867L83.498 38.6387C82.9121 38.6387 82.6191 39.2246 82.6191 40.3965V40.8359L82.9707 55.7773C82.9707 56.1289 84.2305 56.3047 86.75 56.3047L92.375 56.5684C92.375 54.752 93.2246 53.8438 94.9238 53.8438H96.9453L97.2969 54.2832V55.6016C97.2969 56.1289 97.502 56.9785 97.9121 58.1504C96.9746 62.9551 96.1543 65.3574 95.4512 65.3574L91.6719 63.8633L91.2324 63.7754V63.5117L91.9355 62.5449V62.1055L83.498 61.5781C82.9121 61.8125 82.6191 62.1348 82.6191 62.5449V65.5332L82.4434 67.291C82.4434 69.5176 82.8535 74.791 83.6738 83.1113C84.0254 83.3457 86.0176 83.6094 89.6504 83.9023L89.8262 83.9902C90.1777 84.0488 90.3535 84.1953 90.3535 84.4297C90.0605 87.2422 89.2988 88.6484 88.0684 88.6484H87.9805V88.8242L86.0469 88.6484H84.2891C80.5391 89.0586 75.6172 89.3516 69.5234 89.5273L69.4355 89.7031H69.3477L68.5566 89.4395L68.6445 88.209L68.4688 87.3301C68.6445 87.0957 68.791 86.4219 68.9082 85.3086C68.9082 84.957 71.1934 84.5469 75.7637 84.0781C76.877 83.9023 77.4336 83.3164 77.4336 82.3203L78.2246 69.0488L78.8398 69.3125H79.1035L79.2793 68.7852V66.5L78.0488 65.5332L77.6973 62.2812L78.0488 60.9629C77.8145 59.9668 77.6973 55.9238 77.6973 48.834V44.1758C77.6973 42.418 77.7852 40.8359 77.9609 39.4297C77.9609 38.8438 77.5215 38.4922 76.6426 38.375H75.4121C71.1934 38.375 69.084 37.3203 69.084 35.2109L68.9082 34.0684C69.0254 33.248 69.2305 32.8379 69.5234 32.8379H69.7871C69.9043 32.8379 70.0508 33.1895 70.2266 33.8926H70.4023L70.5781 33.6289V33.4531H70.4023C70.4023 32.8086 72.0137 32.4863 75.2363 32.4863ZM92.5508 34.332V34.5078H92.8145C93.2246 34.5078 93.459 34.3906 93.5176 34.1562V33.9805H93.2539C92.7852 34.0977 92.5508 34.2148 92.5508 34.332ZM71.8965 34.5078C72.1309 35.0938 72.8047 35.3867 73.918 35.3867H74.3574V35.5625C73.7715 35.7969 73.4785 36.1191 73.4785 36.5293V36.8809H73.5664C76.1445 36.7051 77.4336 36.4707 77.4336 36.1777V36.0898L76.5547 35.5625V35.2988C76.5547 35.123 76.9355 34.9473 77.6973 34.7715V34.5078C76.5254 34.2148 75.3242 34.0684 74.0938 34.0684C72.6289 34.127 71.8965 34.2734 71.8965 34.5078ZM111.711 36.4414L111.447 36.0898C110.92 37.3203 110.656 38.1406 110.656 38.5508V38.8145C110.656 39.3418 110.861 39.7227 111.271 39.957H111.447L111.623 39.6934V38.8145L111.535 38.6387C111.652 38.2871 111.711 37.877 111.711 37.4082V36.4414ZM84.9922 37.2324H84.7285V37.4082H84.9922V37.2324ZM111.096 43.209H110.92V43.2969C111.037 43.5898 111.154 43.7656 111.271 43.8242H111.535V43.6484C111.477 43.5312 111.359 43.4141 111.184 43.2969L111.096 43.209ZM79.543 45.582H79.2793V45.9336H79.543V45.582ZM95.8906 54.9863H95.4512V55.1621L95.8027 55.4258H96.0664V55.25L95.8906 54.9863ZM83.0586 59.7324L82.7949 60.084L83.0586 60.1719H84.9043C84.9043 59.9375 84.3477 59.791 83.2344 59.7324H83.0586ZM78.4004 75.7285L78.2246 75.9922L78.4004 77.0469H78.5762L78.8398 76.7832V76.168L78.4004 75.7285ZM79.8945 77.75L79.6309 77.5742C79.3965 77.9844 79.2793 78.4531 79.2793 78.9805L79.3672 79.2441H79.543C79.7773 79.1855 79.8945 78.8926 79.8945 78.3652V77.75ZM78.5762 77.75H78.4004V78.1016H78.5762V77.75Z" fill="#E6D4E6"/>
</svg>
